<?xml version="1.0" encoding="UTF-8"?>
<svg version="1.1" xmlns="http://www.w3.org/2000/svg" width="768" height="768">
<path d="M0 0 C253.44 0 506.88 0 768 0 C768 253.44 768 506.88 768 768 C514.56 768 261.12 768 0 768 C0 514.56 0 261.12 0 0 Z " fill="#121214" transform="translate(0,0)"/>
<path d="M0 0 C0.02187378 1.778302 0.02187378 1.778302 0.04418945 3.5925293 C0.10225938 8.00038477 0.17949184 12.40773404 0.26245117 16.81518555 C0.29565962 18.72102631 0.32370425 20.62696446 0.34643555 22.53295898 C0.38005668 25.27630015 0.43237595 28.01875222 0.48828125 30.76171875 C0.49786613 32.03543587 0.49786613 32.03543587 0.50764465 33.33488464 C0.6497125 39.07994076 1.71137294 42.44730059 5.625 46.8125 C9.35421704 48.67710852 12.91924055 48.66312341 17 48 C20.62312599 45.84154197 22.38545829 43.83647891 24 40 C24.32097828 37.98576875 24.32097828 37.98576875 24.31884766 35.87402344 C24.33871735 35.07349548 24.35858704 34.27296753 24.37905884 33.44818115 C24.39061005 32.59387512 24.40216125 31.73956909 24.4140625 30.859375 C24.44311172 29.53610199 24.44311172 29.53610199 24.4727478 28.18609619 C24.53242848 25.37416184 24.57888283 22.5621863 24.625 19.75 C24.66319038 17.84112819 24.70224273 15.93227341 24.7421875 14.0234375 C24.83812058 9.34909704 24.92219416 4.67467591 25 0 C34.57359989 0.49868863 44.01965621 1.19504909 53.5 2.6875 C54.60239014 2.86047607 55.70478027 3.03345215 56.84057617 3.21166992 C103.95802174 10.94857439 148.34896391 30.2567209 185 61 C185.74999268 61.61681641 185.74999268 61.61681641 186.51513672 62.24609375 C200.26877665 73.56731243 213.08056676 85.89489725 224 100 C224.86361102 101.06434948 225.72962678 102.1267509 226.59765625 103.1875 C260.3777544 144.77130429 285.36355521 202.85419134 285 257 C283.88028809 257.01458252 282.76057617 257.02916504 281.60693359 257.04418945 C277.43571726 257.10234886 273.26503081 257.17958023 269.09423828 257.26245117 C267.29224271 257.29561773 265.49014533 257.32367525 263.68798828 257.34643555 C261.09103177 257.38013432 258.49500134 257.43245649 255.8984375 257.48828125 C254.69808365 257.49786613 254.69808365 257.49786613 253.47348022 257.50764465 C248.61041794 257.63424698 245.22824095 258.34622568 241 261 C239.01246767 263.7871143 238.72685095 266.12023901 238.75 269.5 C238.74484375 270.2528125 238.7396875 271.005625 238.734375 271.78125 C239.04905884 274.40978559 239.4549589 275.83339065 241 278 C246.02323625 281.15273787 250.15523621 281.465859 255.8984375 281.51171875 C257.15087753 281.53864555 257.15087753 281.53864555 258.42861938 281.56611633 C261.07736261 281.61999922 263.72592794 281.65404361 266.375 281.6875 C268.17841005 281.72069259 269.9817967 281.75518404 271.78515625 281.79101562 C276.18997534 281.87571275 280.5947437 281.94262834 285 282 C285.93222733 334.70537091 265.19432385 389.36357066 235 432 C234.31599121 432.97018066 234.31599121 432.97018066 233.61816406 433.95996094 C226.59805579 443.8324399 218.86455209 452.7103334 210.47705078 461.4375 C208.62193207 463.39993963 206.8668121 465.43680572 205.125 467.5 C202.36103448 470.70509718 199.35592107 473.45053827 196.125 476.1796875 C194.69934979 477.40092463 193.30311315 478.657291 191.9375 479.9453125 C148.54066379 520.78052991 84.53511797 546.78221323 25 546 C24.98541748 544.72882324 24.97083496 543.45764648 24.95581055 542.14794922 C24.89770193 537.41768708 24.82046952 532.6878947 24.73754883 527.95800781 C24.70435859 525.9134892 24.67630837 523.86888026 24.65356445 521.82421875 C24.61991007 518.87981794 24.56758834 515.93624046 24.51171875 512.9921875 C24.50213387 511.6277803 24.50213387 511.6277803 24.49235535 510.23580933 C24.37435514 505.10641736 23.89496187 501.41783018 21 497 C17.63204875 494.57194212 15.02087191 493.74575231 10.9375 494 C6.73064201 494.72532034 4.64236443 496.63699073 2 500 C1.08812389 502.73562834 0.85269741 504.46145475 0.79467773 507.2878418 C0.77473251 508.14850754 0.75478729 509.00917328 0.73423767 509.8959198 C0.71752518 510.82100845 0.70081268 511.74609711 0.68359375 512.69921875 C0.6524221 514.12449638 0.6524221 514.12449638 0.62062073 515.5785675 C0.55521948 518.61480456 0.49628396 521.65112831 0.4375 524.6875 C0.39430583 526.74545169 0.35069124 528.80339459 0.30664062 530.86132812 C0.19954769 535.90746316 0.09825354 540.95368543 0 546 C-8.08312819 546.13721979 -15.92695546 545.91284167 -23.9375 544.8125 C-25.40558105 544.61394409 -25.40558105 544.61394409 -26.90332031 544.41137695 C-44.05177008 541.96336565 -60.63434561 537.61993179 -77 532 C-77.6609668 531.77763672 -78.32193359 531.55527344 -79.00292969 531.32617188 C-112.0763366 520.09495919 -142.03030454 501.17208066 -168 478 C-168.55945313 477.50226074 -169.11890625 477.00452148 -169.6953125 476.49169922 C-175.55111224 471.25463168 -181.30632866 465.99900641 -186.3515625 459.95703125 C-188.20613903 457.75527096 -190.16334249 455.66933433 -192.125 453.5625 C-233.03577706 407.99803522 -259.70040321 343.578884 -259 282 C-257.32043213 281.98598145 -257.32043213 281.98598145 -255.60693359 281.97167969 C-251.43563684 281.93167839 -247.26506978 281.86589195 -243.09423828 281.79248047 C-241.29225061 281.76432947 -239.49014081 281.74308578 -237.68798828 281.72900391 C-235.09083802 281.70749245 -232.49514705 281.66080243 -229.8984375 281.609375 C-229.0982016 281.60814636 -228.2979657 281.60691772 -227.47348022 281.60565186 C-222.21076296 281.46916792 -219.19955872 280.44491885 -215 277 C-212.41355536 273.5905957 -212.63496885 270.1613551 -213 266 C-214.82579004 261.77185464 -216.87319622 259.95516292 -221 258 C-223.93211794 257.54342341 -226.83712934 257.5117945 -229.80078125 257.48828125 C-230.63715622 257.47033005 -231.47353119 257.45237885 -232.33525085 257.43388367 C-234.99428334 257.37990491 -237.65313761 257.34592539 -240.3125 257.3125 C-242.12046744 257.27931589 -243.9284114 257.24482522 -245.73632812 257.20898438 C-250.15742324 257.12418576 -254.57846664 257.05731559 -259 257 C-258.54667195 247.53773147 -258.03304544 238.20815561 -256.3125 228.875 C-256.13807373 227.91255371 -255.96364746 226.95010742 -255.78393555 225.95849609 C-250.34572019 197.04081528 -240.42557494 170.13812145 -227 144 C-226.60844727 143.23365234 -226.21689453 142.46730469 -225.81347656 141.67773438 C-214.48784902 119.7998375 -198.84360304 100.34513984 -182.125 82.375 C-181.23373413 81.4164209 -181.23373413 81.4164209 -180.32446289 80.43847656 C-176.1193759 75.99753014 -171.64835389 71.96974458 -167 68 C-166.01257813 67.13117188 -165.02515625 66.26234375 -164.0078125 65.3671875 C-144.87229245 48.82455634 -123.83595165 35.79698792 -101 25 C-99.81148437 24.42894531 -98.62296875 23.85789063 -97.3984375 23.26953125 C-67.84349823 9.46960562 -32.79497058 -0.28626544 0 0 Z " fill="#121214" transform="translate(372,109)"/>
<path d="M0 0 C1.24035004 0.36793671 2.48070007 0.73587341 3.75863647 1.11495972 C5.09813753 1.50076916 6.438023 1.88524605 7.77825928 2.26849365 C10.62729554 3.08610766 13.47353183 3.91261117 16.31784058 4.746521 C20.83921105 6.07205279 25.36627878 7.37732852 29.89437866 8.67965698 C35.27543736 10.2286915 40.65515956 11.78219596 46.03295898 13.34250927 C57.35338986 16.62700841 68.69115542 19.84845251 80.03601074 23.04754639 C83.17566175 23.93320448 86.31476534 24.82077752 89.45370483 25.70895386 C105.77830859 30.32789281 122.10547593 34.93778783 138.43431377 39.54173565 C142.24958728 40.61747934 146.06473707 41.69365697 149.87957764 42.77093506 C164.98977713 47.03763615 180.10308806 51.28933023 195.25116539 55.41986084 C198.43076485 56.2874048 201.60935759 57.15862688 204.78817749 58.02902222 C209.44693201 59.30422374 214.10921302 60.56522024 218.77401733 61.81808472 C220.84585536 62.38397111 222.91755985 62.95034671 224.98910522 63.51730347 C225.91373566 63.76121826 226.83836609 64.00513306 227.79101562 64.25643921 C235.28320344 66.3283049 240.26536088 68.97526282 244.89144897 75.48605347 C248.89307851 83.48931254 244.58226998 94.40409241 242.17660522 102.28683472 C241.77329197 103.64804812 241.37137235 105.00967508 240.97071838 106.37167358 C240.10444779 109.30642095 239.22907353 112.23823406 238.34640503 115.16809082 C236.92343799 119.89227026 235.52148432 124.62252848 234.12289429 129.35397339 C232.62649824 134.41306619 231.12883687 139.47176467 229.62445068 144.52848816 C224.24990763 162.59711274 218.98886134 180.69833262 213.73632812 198.80273438 C212.1436598 204.29203627 210.54836829 209.78057377 208.95272827 215.26901245 C201.70855966 240.19039459 194.49879618 265.12154283 187.33370972 290.06578064 C186.7309402 292.16092923 186.12658314 294.25562188 185.52047729 296.34980774 C184.00187365 301.59848555 182.50962499 306.85263011 181.05648804 312.11984253 C180.75223907 313.20488068 180.44799011 314.28991882 180.13452148 315.40783691 C179.56080462 317.45413235 178.99653023 319.503111 178.44403076 321.55523682 C176.40756267 328.75303731 173.73379639 334.7130316 168.32894897 339.98605347 C159.97745804 343.63034042 150.63459111 341.34146261 142.23519897 338.80245972 C141.23997726 338.51604614 140.24475555 338.22963257 139.21937561 337.93453979 C135.93898739 336.98706513 132.66549624 336.01768991 129.39144897 335.04855347 C127.04729689 334.36773553 124.70263914 333.68865658 122.35751343 333.01119995 C117.40160522 331.57823178 112.44790408 330.1379528 107.49545288 328.69308472 C96.29482622 325.43294495 85.06502178 322.27610794 73.83764648 319.10961914 C67.50765065 317.32268596 61.17999652 315.52750716 54.85238647 313.73214722 C52.97481407 313.19943459 52.97481407 313.19943459 51.05931091 312.65596008 C47.33662364 311.5995591 43.61402094 310.54286068 39.89144897 309.48605347 C38.71666992 309.15260925 37.54189087 308.81916504 36.33151245 308.47561646 C8.54903484 300.58825513 -19.21199401 292.62627582 -46.94390869 284.56289673 C-49.81348055 283.72867397 -52.68374925 282.89692117 -55.5546875 282.06741333 C-58.93523214 281.09043776 -62.3140725 280.10776686 -65.6917572 279.1209507 C-67.51178965 278.59058973 -69.33339303 278.06562873 -71.15505981 277.54090881 C-95.53857195 270.38986973 -95.53857195 270.38986973 -100.10855103 262.48605347 C-102.86581742 254.21425428 -100.53103122 246.09288692 -98.09292603 238.02902222 C-97.77018707 236.92194916 -97.44744812 235.8148761 -97.1149292 234.67425537 C-96.04181252 231.00360672 -94.95006852 227.33876831 -93.85855103 223.67355347 C-93.09012503 221.06235867 -92.3260376 218.44990159 -91.56216431 215.83737183 C-90.14352756 210.99022724 -88.72023055 206.14449534 -87.29120064 201.30040455 C-84.51795788 191.89884223 -81.77864825 182.4877016 -79.05386353 173.07199097 C-78.84503855 172.35046215 -78.63621357 171.62893333 -78.42106056 170.88554001 C-77.57641704 167.96686537 -76.73191947 165.0481486 -75.88771534 162.12934685 C-74.40105343 156.98960328 -72.91172714 151.85063754 -71.42080688 146.71212769 C-67.01083202 131.51234106 -62.61239102 116.30935309 -58.23526001 101.10006714 C-55.53197659 91.70748347 -52.81800879 82.31799322 -50.10317993 72.92874146 C-49.21959975 69.87042405 -48.33736279 66.81172233 -47.45563793 63.75286961 C-45.52183412 57.04460234 -43.58217232 50.33807371 -41.63336468 43.6341486 C-40.69023604 40.38924149 -39.75047407 37.14345877 -38.81573486 33.89611816 C-37.78126718 30.30415531 -36.73708264 26.71515118 -35.69058228 23.12667847 C-35.38704834 22.0645665 -35.0835144 21.00245453 -34.77078247 19.90815735 C-30.00710258 3.691373 -30.00710258 3.691373 -23.2868042 -1.32789612 C-16.34679773 -5.10670276 -7.08543364 -2.01129822 0 0 Z " fill="#F21520" transform="translate(305.1085510253906,208.51394653320313)"/>
<path d="M0 0 C2.89139651 2.53878718 4.34769726 4.43024112 4.80300903 8.28753662 C4.79856781 9.00701477 4.79412659 9.72649292 4.78955078 10.46777344 C4.78939972 11.28832214 4.78924866 12.10887085 4.78909302 12.95428467 C4.77877045 13.83046448 4.76844788 14.70664429 4.7578125 15.609375 C4.75356766 16.96594208 4.75356766 16.96594208 4.74923706 18.34991455 C4.73805782 21.23341195 4.71295733 24.11659675 4.6875 27 C4.67746728 28.95702676 4.66834194 30.91405839 4.66015625 32.87109375 C4.63812585 37.66418262 4.60361144 42.45703834 4.5625 47.25 C5.58988281 47.23622314 6.61726563 47.22244629 7.67578125 47.20825195 C15.72887006 47.13238864 23.57342328 47.29747073 31.5625 48.4375 C33.01342041 48.63931885 33.01342041 48.63931885 34.49365234 48.84521484 C79.63764355 55.40036973 122.88317914 71.41139384 160.5625 97.25 C161.18205566 97.6713623 161.80161133 98.09272461 162.43994141 98.52685547 C170.6921835 104.16709886 178.43155033 110.26130642 185.95336914 116.84545898 C187.07114327 117.82111587 188.1958696 118.78884206 189.32592773 119.75024414 C195.44207628 124.99656127 201.17616395 130.62150914 206.875 136.3125 C207.38550903 136.82200195 207.89601807 137.33150391 208.42199707 137.85644531 C216.11575882 145.56047104 223.20046272 153.40495655 229.5625 162.25 C230.47250664 163.45780889 231.38537695 164.66346437 232.30078125 165.8671875 C238.9431301 174.66045782 244.95000878 183.76851008 250.5625 193.25 C250.9735498 193.94432129 251.38459961 194.63864258 251.80810547 195.35400391 C275.10170984 235.11048368 292.14656882 283.76048216 291.5625 330.25 C292.71250488 330.22905273 293.86250977 330.20810547 295.04736328 330.18652344 C299.32995056 330.11390937 303.61248383 330.06812271 307.89550781 330.03027344 C309.74618696 330.01020661 311.59680309 329.98294655 313.44726562 329.94824219 C316.11343977 329.89950567 318.77877287 329.87698213 321.4453125 329.859375 C322.67847702 329.82840729 322.67847702 329.82840729 323.93655396 329.79681396 C329.30146206 329.79473688 332.29736739 330.70021932 336.5625 334.25 C338.93552167 337.17672672 339.52216626 338.93309204 340 342.6875 C339.37862214 347.74729114 337.46020089 350.7517918 333.46801758 353.90356445 C329.485284 355.74918883 326.09634202 355.6263024 321.76171875 355.54296875 C320.92534378 355.53872391 320.08896881 355.53447906 319.22724915 355.53010559 C316.56783235 355.51337364 313.909186 355.47573226 311.25 355.4375 C309.44206827 355.42244604 307.63412461 355.40875888 305.82617188 355.39648438 C301.40465311 355.36348816 296.98370698 355.31174428 292.5625 355.25 C292.50408936 356.28680908 292.44567871 357.32361816 292.38549805 358.3918457 C289.83936979 402.19243129 279.04547175 445.37004765 258.58496094 484.29492188 C257.51047102 486.34948617 256.46147947 488.41589118 255.4140625 490.484375 C250.43777285 500.22021119 244.89129259 509.33746351 238.5625 518.25 C238.01899902 519.01666992 237.47549805 519.78333984 236.91552734 520.57324219 C229.95361853 530.33430908 222.8241819 539.55190868 214.5625 548.25 C213.47259629 549.5152029 212.3888944 550.78578407 211.3125 552.0625 C202.59193248 562.05824484 192.98604743 571.06411628 182.5625 579.25 C181.45601338 580.16647709 180.35197691 581.08591783 179.25 582.0078125 C164.57046533 594.1917457 148.40756901 604.33328072 131.5625 613.25 C130.60512939 613.75756836 130.60512939 613.75756836 129.62841797 614.27539062 C91.41295183 634.34738539 47.94111045 646.95904398 4.5625 646.25 C4.5939209 648.11132568 4.5939209 648.11132568 4.62597656 650.01025391 C4.6985537 654.62829989 4.74436421 659.24629577 4.78222656 663.86474609 C4.80230169 665.86092618 4.82956789 667.85704775 4.86425781 669.85302734 C4.91295657 672.7276862 4.93550986 675.6015654 4.953125 678.4765625 C4.97377014 679.36429352 4.99441528 680.25202454 5.01568604 681.16665649 C5.01767823 686.7083375 4.2710195 689.85779174 0.5625 694.25 C-2.87087014 697.11114179 -5.94971498 697.8416932 -10.44140625 697.671875 C-14.11194357 696.89610586 -15.8680421 694.94181304 -18.4375 692.25 C-20.17550535 689.37437353 -20.68469295 687.28403017 -20.66455078 683.94042969 C-20.66439972 683.09986023 -20.66424866 682.25929077 -20.66409302 681.39324951 C-20.65377045 680.49519592 -20.64344788 679.59714233 -20.6328125 678.671875 C-20.62856766 677.28201385 -20.62856766 677.28201385 -20.62423706 675.86407471 C-20.61305611 672.90925091 -20.58795527 669.95473195 -20.5625 667 C-20.55246751 664.99479605 -20.54334213 662.98958734 -20.53515625 660.984375 C-20.51312358 656.07279949 -20.47860795 651.16145141 -20.4375 646.25 C-21.51386719 646.26885254 -22.59023438 646.28770508 -23.69921875 646.30712891 C-32.75785504 646.41800365 -41.46979885 646.06115532 -50.4375 644.625 C-52.1541687 644.35768066 -52.1541687 644.35768066 -53.90551758 644.08496094 C-111.90521603 634.65956139 -164.93614412 608.59046211 -208.4375 569.25 C-209.02821289 568.72100098 -209.61892578 568.19200195 -210.22753906 567.64697266 C-216.0171236 562.45603688 -221.71548568 557.26883981 -226.7109375 551.2890625 C-228.81388272 548.80549371 -231.03275678 546.44449194 -233.25 544.0625 C-248.3814773 527.38374382 -260.97531873 508.1599101 -271.4375 488.25 C-271.76911133 487.62383789 -272.10072266 486.99767578 -272.44238281 486.35253906 C-289.96467113 453.0311865 -300.41836798 417.51892808 -305.4375 380.25 C-305.56898438 379.30769531 -305.70046875 378.36539062 -305.8359375 377.39453125 C-306.43717544 372.41400613 -306.47645288 367.46450293 -306.45703125 362.453125 C-306.45562134 361.75912598 -306.45421143 361.06512695 -306.45275879 360.35009766 C-306.44910122 358.65006143 -306.44349728 356.95002958 -306.4375 355.25 C-307.5927417 355.26571045 -308.7479834 355.2814209 -309.93823242 355.29760742 C-314.23389687 355.35200369 -318.529531 355.38638533 -322.82543945 355.41479492 C-324.68291345 355.42985946 -326.54035201 355.45031509 -328.39770508 355.47631836 C-331.07121539 355.51280459 -333.74425444 355.5297497 -336.41796875 355.54296875 C-337.24523972 355.55845261 -338.07251068 355.57393646 -338.92485046 355.58988953 C-344.99841377 355.59165294 -348.21146095 354.29554939 -352.75 350.125 C-355.1098601 346.1044976 -355.4852278 342.79791475 -354.4375 338.25 C-352.11230797 334.32851626 -349.79360714 331.70203571 -345.4375 330.25 C-342.48785887 330.164591 -339.56246981 330.13417073 -336.61328125 330.15234375 C-335.32117989 330.15446617 -335.32117989 330.15446617 -334.00297546 330.15663147 C-331.25194831 330.1622286 -328.50100256 330.17478054 -325.75 330.1875 C-323.8847668 330.19251537 -322.01953233 330.19707821 -320.15429688 330.20117188 C-315.58199989 330.21219708 -311.00976375 330.22945973 -306.4375 330.25 C-306.45431824 329.61642578 -306.47113647 328.98285156 -306.48846436 328.33007812 C-307.32282484 290.93784548 -293.99178103 249.48870577 -277.4375 216.25 C-276.98117187 215.32638672 -276.52484375 214.40277344 -276.0546875 213.45117188 C-264.71805248 190.67181034 -251.17028659 168.13374763 -233.59765625 149.55078125 C-231.73240185 147.5640998 -229.94834415 145.53861746 -228.16796875 143.4765625 C-224.49408243 139.26321945 -220.64195392 135.26213788 -216.6875 131.3125 C-215.98794189 130.61374756 -215.28838379 129.91499512 -214.56762695 129.19506836 C-209.12234477 123.81356144 -203.47149905 118.9646384 -197.4375 114.25 C-195.70759537 112.79254213 -193.97845078 111.33418174 -192.25 109.875 C-148.36455904 74.10960532 -86.2264316 46.79189561 -28.9609375 47.20703125 C-28.13682373 47.21013306 -27.31270996 47.21323486 -26.46362305 47.21643066 C-24.45490017 47.22444225 -22.44619527 47.23676907 -20.4375 47.25 C-20.45844727 46.03940918 -20.47939453 44.82881836 -20.50097656 43.58154297 C-20.5735654 39.07531639 -20.61936835 34.56914116 -20.65722656 30.0625 C-20.67729906 28.11482034 -20.70456332 26.16720063 -20.73925781 24.21972656 C-20.78796852 21.41456279 -20.81051241 18.61019813 -20.828125 15.8046875 C-20.84877014 14.93883026 -20.86941528 14.07297302 -20.89068604 13.18087769 C-20.89270273 7.70468214 -20.10083145 4.59077934 -16.4375 0.25 C-11.34444021 -3.2326061 -5.28643309 -2.69127503 0 0 Z M-171.4375 128.25 C-172.33339844 128.93449219 -173.22929687 129.61898437 -174.15234375 130.32421875 C-179.91993719 134.8161991 -185.2856675 139.69223704 -190.6328125 144.66796875 C-192.85995935 146.71830868 -195.11645875 148.68437837 -197.4375 150.625 C-206.4075211 158.41770583 -214.30409839 167.78575622 -221.4375 177.25 C-221.90236816 177.86407715 -222.36723633 178.4781543 -222.84619141 179.11083984 C-253.48533114 219.81809172 -279.67903701 274.32516934 -279.45385742 326.46264648 C-279.44845947 327.71247314 -279.44306152 328.9622998 -279.4375 330.25 C-278.31255127 330.26458252 -277.18760254 330.27916504 -276.02856445 330.29418945 C-271.84432613 330.35227754 -267.66062003 330.42950964 -263.47680664 330.51245117 C-261.66797542 330.54565114 -259.85904182 330.57369841 -258.05004883 330.59643555 C-255.44568367 330.63007258 -252.8422524 330.68239195 -250.23828125 330.73828125 C-249.43288406 330.74467117 -248.62748688 330.7510611 -247.79768372 330.75764465 C-243.1990309 330.87735159 -240.19416514 331.32103697 -236.4375 334.25 C-233.26794803 338.18461624 -232.90401202 341.27077887 -233.4375 346.25 C-235.26329004 350.47814536 -237.31069622 352.29483708 -241.4375 354.25 C-244.36961794 354.70657659 -247.27462934 354.7382055 -250.23828125 354.76171875 C-251.4928437 354.78864555 -251.4928437 354.78864555 -252.77275085 354.81611633 C-255.43178334 354.87009509 -258.09063761 354.90407461 -260.75 354.9375 C-262.55796744 354.97068411 -264.3659114 355.00517478 -266.17382812 355.04101562 C-270.59492324 355.12581424 -275.01596664 355.19268441 -279.4375 355.25 C-280.18867187 393.31401145 -269.1617067 432.31751865 -252.4375 466.25 C-251.82334229 467.51287842 -251.82334229 467.51287842 -251.19677734 468.80126953 C-242.5427478 486.45628284 -232.17664906 503.23121374 -219.4375 518.25 C-218.71175781 519.1575 -217.98601562 520.065 -217.23828125 521 C-213.15583231 526.10132838 -208.96246893 530.87313166 -204.26953125 535.41796875 C-202.54248944 537.14501056 -200.98815296 538.92747444 -199.4375 540.8125 C-196.74796761 544.01535712 -193.7859672 546.694896 -190.59765625 549.39453125 C-189.15969988 550.62966556 -187.75001018 551.89850174 -186.37109375 553.19921875 C-145.69119901 591.47369363 -82.9593498 619.44673332 -26.64453125 619.26953125 C-25.48026611 619.26671143 -24.31600098 619.2638916 -23.11645508 619.26098633 C-22.2323999 619.25736084 -21.34834473 619.25373535 -20.4375 619.25 C-20.42291748 617.97882324 -20.40833496 616.70764648 -20.39331055 615.39794922 C-20.33520193 610.66768708 -20.25796952 605.9378947 -20.17504883 601.20800781 C-20.14185859 599.1634892 -20.11380837 597.11888026 -20.09106445 595.07421875 C-20.05741007 592.12981794 -20.00508834 589.18624046 -19.94921875 586.2421875 C-19.94282883 585.3325827 -19.9364389 584.42297791 -19.92985535 583.48580933 C-19.81185514 578.35641736 -19.33246187 574.66783018 -16.4375 570.25 C-13.06954875 567.82194212 -10.45837191 566.99575231 -6.375 567.25 C-2.16814201 567.97532034 -0.07986443 569.88699073 2.5625 573.25 C3.47437611 575.98562834 3.70980259 577.71145475 3.76782227 580.5378418 C3.78776749 581.39850754 3.80771271 582.25917328 3.82826233 583.1459198 C3.85333107 584.53355278 3.85333107 584.53355278 3.87890625 585.94921875 C3.89968735 586.89940384 3.92046844 587.84958893 3.94187927 588.8285675 C4.00728052 591.86480456 4.06621604 594.90112831 4.125 597.9375 C4.16819417 599.99545169 4.21180876 602.05339459 4.25585938 604.11132812 C4.36295231 609.15746316 4.46424646 614.20368543 4.5625 619.25 C41.71664351 619.54191383 78.32871951 609.65270164 111.5625 593.25 C112.75214355 592.66847168 112.75214355 592.66847168 113.96582031 592.07519531 C126.1481858 586.06522834 137.47359161 579.08572156 148.5625 571.25 C149.13049316 570.8492627 149.69848633 570.44852539 150.28369141 570.03564453 C158.20580513 564.39098545 165.56306254 558.10612499 172.87890625 551.71020508 C174.05110973 550.69353614 175.23146444 549.68622142 176.41796875 548.6862793 C179.49579442 546.09098721 182.36973385 543.55550175 184.9375 540.4375 C187.43058839 537.4956557 190.02971004 534.79390354 192.8125 532.125 C198.13963093 526.85204328 202.65358356 521.04978887 207.16845703 515.08398438 C208.50181953 513.32983042 209.85637141 511.59410942 211.21484375 509.859375 C244.05359248 467.25611992 265.12493004 409.1751102 264.5625 355.25 C262.88293213 355.22812622 262.88293213 355.22812622 261.16943359 355.20581055 C256.99821726 355.14765114 252.82753081 355.07041977 248.65673828 354.98754883 C246.85474271 354.95438227 245.05264533 354.92632475 243.25048828 354.90356445 C240.65353177 354.86986568 238.05750134 354.81754351 235.4609375 354.76171875 C234.6607016 354.75532883 233.8604657 354.7489389 233.03598022 354.74235535 C228.17307174 354.61575703 224.7903738 353.90420831 220.5625 351.25 C217.76386279 347.30609915 218.03120424 342.89883787 218.5625 338.25 C219.83240951 335.1086449 220.64181848 333.74220673 223.62573242 332.14697266 C227.56930763 330.94249221 231.26039644 330.8947821 235.36328125 330.8359375 C236.6178437 330.80688828 236.6178437 330.80688828 237.89775085 330.7772522 C240.5567317 330.71769808 243.2157564 330.67116826 245.875 330.625 C247.68296109 330.58679794 249.49090442 330.54774491 251.29882812 330.5078125 C255.71990698 330.41201655 260.14107101 330.32789669 264.5625 330.25 C264.10915934 320.78746825 263.59414133 311.45859894 261.875 302.125 C261.70274902 301.16762939 261.53049805 300.21025879 261.35302734 299.22387695 C252.63599063 252.63294969 233.14993567 208.62288221 202.5625 172.25 C201.58171081 171.05885753 200.60119136 169.86749284 199.62109375 168.67578125 C188.77595346 155.70916326 176.98367267 143.5616067 163.5625 133.25 C162.32332965 132.2602267 161.08511912 131.269251 159.84765625 130.27734375 C144.30367606 117.95167147 127.55639461 107.5942276 109.5625 99.25 C108.8715625 98.92193359 108.180625 98.59386719 107.46875 98.25585938 C83.89186519 87.08673731 58.80888491 79.97736614 33.0625 75.9375 C32.04969971 75.77805908 31.03689941 75.61861816 29.9934082 75.4543457 C21.54180454 74.21754229 13.08498424 73.69393604 4.5625 73.25 C4.54848145 75.02044678 4.54848145 75.02044678 4.53417969 76.82666016 C4.49419352 81.22156998 4.42841085 85.61578613 4.35498047 90.01025391 C4.3268208 91.90925154 4.30558142 93.8083653 4.29150391 95.70751953 C4.27000482 98.44363638 4.22331992 101.17836452 4.171875 103.9140625 C4.17064636 104.75804596 4.16941772 105.60202942 4.16815186 106.47158813 C4.03570198 111.84771355 3.15626209 115.00067432 -0.4375 119.25 C-4.46362967 121.93408645 -7.70566918 122.05610406 -12.4375 121.25 C-16.01089883 119.32643127 -18.13357513 117.1617746 -19.4375 113.25 C-19.54985161 111.91548737 -19.61325649 110.57645611 -19.64282227 109.23754883 C-19.66276749 108.43694534 -19.68271271 107.63634186 -19.70326233 106.81147766 C-19.72833107 105.52227669 -19.72833107 105.52227669 -19.75390625 104.20703125 C-19.77468735 103.3234343 -19.79546844 102.43983734 -19.81687927 101.52946472 C-19.88225754 98.70722215 -19.94120528 95.88488665 -20 93.0625 C-20.04319637 91.14907894 -20.08681102 89.23566727 -20.13085938 87.32226562 C-20.23792695 82.63160563 -20.33922752 77.94085217 -20.4375 73.25 C-73.51080111 72.78672616 -130.08407417 95.97831669 -171.4375 128.25 Z " fill="#FDFDFD" transform="translate(392.4375,35.75)"/>
<path d="M0 0 C20.78135736 5.25633052 41.38401725 11.13566168 62 17 C61.44637725 23.61643663 60.16952392 29.53467816 58.19921875 35.86328125 C57.78274834 37.23313423 57.78274834 37.23313423 57.35786438 38.63066101 C56.4751439 41.52693061 55.58134671 44.41964746 54.6875 47.3125 C54.0989158 49.24132495 53.51101942 51.17035993 52.92382812 53.09960938 C50.07153026 62.44257641 47.15605777 71.7546763 44 81 C36.59738461 79.64494995 29.39554321 77.82355688 22.15625 75.77734375 C21.06534058 75.47180069 19.97443115 75.16625763 18.85046387 74.85145569 C16.56420038 74.21027537 14.27843942 73.56730073 11.99316406 72.92260742 C8.4836549 71.93289052 4.97243868 70.94942004 1.4609375 69.96679688 C-0.76572731 69.34151005 -2.99229343 68.71587166 -5.21875 68.08984375 C-6.27074585 67.79504623 -7.3227417 67.50024872 -8.40661621 67.19651794 C-9.37522583 66.92275833 -10.34383545 66.64899872 -11.34179688 66.36694336 C-12.62225891 66.00626015 -12.62225891 66.00626015 -13.92858887 65.63829041 C-16 65 -16 65 -18 64 C-17.30620376 57.22143972 -15.357191 50.87643749 -13.4375 44.35546875 C-13.0861499 43.14933426 -12.7347998 41.94319977 -12.37280273 40.70051575 C-11.63196066 38.16073989 -10.88936985 35.62156308 -10.14355469 33.08325195 C-9.18730362 29.82848164 -8.23699057 26.57201582 -7.28874207 23.31490612 C-6.38228639 20.20275671 -5.47239352 17.0916145 -4.5625 13.98046875 C-4.22081787 12.80969284 -3.87913574 11.63891693 -3.52709961 10.43266296 C-3.0515564 8.81506828 -3.0515564 8.81506828 -2.56640625 7.16479492 C-2.14790405 5.73752327 -2.14790405 5.73752327 -1.72094727 4.28141785 C-1 2 -1 2 0 0 Z " fill="#141214" transform="translate(358,338)"/>
<path d="M0 0 C5.61 0 11.22 0 17 0 C17 0.33 17 0.66 17 1 C12.05 1.33 7.1 1.66 2 2 C2.01047363 3.13018555 2.02094727 4.26037109 2.03173828 5.42480469 C2.06796432 9.62171252 2.09090998 13.81860654 2.10986328 18.015625 C2.11991491 19.83140386 2.13355828 21.64716656 2.15087891 23.46289062 C2.17516406 26.07425935 2.18649148 28.68541387 2.1953125 31.296875 C2.20563507 32.10743347 2.21595764 32.91799194 2.22659302 33.75311279 C2.22797609 40.71585532 2.22797609 40.71585532 0 44 C-1.15609707 41.68780587 -1.09085101 40.48269304 -1.02172852 37.91748047 C-1.00163223 37.07675995 -0.98153595 36.23603943 -0.96083069 35.36984253 C-0.92027809 34.00727829 -0.92027809 34.00727829 -0.87890625 32.6171875 C-0.84348976 31.22308151 -0.84348976 31.22308151 -0.80735779 29.80081177 C-0.7306391 26.82538894 -0.64665009 23.85022104 -0.5625 20.875 C-0.50928753 18.86068966 -0.45654708 16.84636678 -0.40429688 14.83203125 C-0.27501284 9.88785868 -0.13920707 4.94390273 0 0 Z " fill="#030303" transform="translate(397,682)"/>
<path d="M0 0 C7.30386799 1.32224012 14.36324949 3.14938551 21.4765625 5.2578125 C22.52782318 5.56572723 23.57908386 5.87364197 24.66220093 6.19088745 C27.98432346 7.16492699 31.30467286 8.14485987 34.625 9.125 C36.891812 9.79075656 39.15873804 10.45612494 41.42578125 11.12109375 C46.95184695 12.74291147 52.47647329 14.36955734 58 16 C58 16.33 58 16.66 58 17 C51.45961871 16.3683024 45.38143512 14.8982809 39.0625 13.125 C38.12470703 12.86847656 37.18691406 12.61195313 36.22070312 12.34765625 C31.06562822 10.92186069 25.99035997 9.37433617 20.95214844 7.5769043 C16.95760508 6.39642581 13.39724959 6.4267694 9.5625 8 C9.046875 8.33 8.53125 8.66 8 9 C7.67 8.01 7.34 7.02 7 6 C7.66 5.34 8.32 4.68 9 4 C6.03 3.01 3.06 2.02 0 1 C0 0.67 0 0.34 0 0 Z " fill="#360203" transform="translate(231,485)"/>
<path d="M0 0 C0.33 0 0.66 0 1 0 C1.10551806 6.54211987 0.66396147 12.36038532 0 19 C-12.54 19 -25.08 19 -38 19 C-38 18.34 -38 17.68 -38 17 C-36.94498291 17.00523682 -35.88996582 17.01047363 -34.80297852 17.01586914 C-30.9024337 17.03391901 -27.0018926 17.04543195 -23.10131836 17.05493164 C-21.41055684 17.0599719 -19.71979971 17.06680405 -18.02905273 17.07543945 C-15.60399293 17.08751857 -13.17899056 17.09323123 -10.75390625 17.09765625 C-9.99348526 17.10281754 -9.23306427 17.10797882 -8.44960022 17.11329651 C-6.6326743 17.11349238 -4.81586873 17.06197277 -3 17 C-0.91858446 14.91858446 -1.26911239 10.81393047 -0.9375 7.9375 C-0.84662109 7.17888672 -0.75574219 6.42027344 -0.66210938 5.63867188 C-0.4375626 3.7595699 -0.21829022 1.87983905 0 0 Z " fill="#030303" transform="translate(86,347)"/>
<path d="M0 0 C1.83052965 6.65173487 -0.83157973 12.86125932 -3.2734375 19.1015625 C-5.40830189 24.67975656 -6.37920507 30.10244814 -7 36 C-4.17098528 38.37996729 -4.17098528 38.37996729 -1 37.5 C2 37 2 37 5 39 C5 39.66 5 40.32 5 41 C6.65 41.33 8.3 41.66 10 42 C6.94371936 42.97812873 5.14722553 43.00835683 2.109375 42.00390625 C1.40039062 41.77509766 0.69140625 41.54628906 -0.0390625 41.31054688 C-0.76867187 41.06369141 -1.49828125 40.81683594 -2.25 40.5625 C-2.99507813 40.31951172 -3.74015625 40.07652344 -4.5078125 39.82617188 C-6.34158235 39.22667019 -8.17122004 38.61455513 -10 38 C-9.38883696 33.00085534 -8.36156032 28.38219769 -6.93359375 23.53515625 C-6.73524429 22.85698349 -6.53689484 22.17881073 -6.33253479 21.48008728 C-5.70536148 19.33953732 -5.07155546 17.20102025 -4.4375 15.0625 C-4.00802135 13.60104133 -3.57898071 12.13945387 -3.15039062 10.67773438 C-2.1053168 7.11698745 -1.05429008 3.5580305 0 0 Z " fill="#360506" transform="translate(350,364)"/>
<path d="M0 0 C0.33 0 0.66 0 1 0 C1.33 3.3 1.66 6.6 2 10 C3.57467041 9.98428955 3.57467041 9.98428955 5.18115234 9.96826172 C9.06865033 9.93211547 12.95613341 9.90911922 16.84375 9.89013672 C18.52769466 9.88006683 20.21162179 9.86641012 21.89550781 9.84912109 C24.31319501 9.82491574 26.73065143 9.81352704 29.1484375 9.8046875 C29.9036972 9.79436493 30.65895691 9.78404236 31.43710327 9.77340698 C33.2929398 9.77300682 35.1481928 9.87777284 37 10 C37.66 10.66 38.32 11.32 39 12 C26.13 12 13.26 12 0 12 C0 8.04 0 4.08 0 0 Z " fill="#040404" transform="translate(684,354)"/>
<path d="M0 0 C8.02909334 0.18361752 14.9420321 2.10644579 22.421875 4.84375 C26.03586826 6.01159062 29.24297141 6.57613011 33 7 C33 7.66 33 8.32 33 9 C34.7015625 8.87625 34.7015625 8.87625 36.4375 8.75 C41.56486617 8.71331044 45.52078524 10.6774442 50 13 C46.84853502 14.01699061 44.9207188 13.95799472 41.75390625 13.04370117 C40.92624756 12.809832 40.09858887 12.57596283 39.24584961 12.33500671 C38.36034424 12.07363419 37.47483887 11.81226166 36.5625 11.54296875 C35.6454126 11.27994461 34.7283252 11.01692047 33.78344727 10.7459259 C31.84549733 10.18805215 29.90891608 9.62540496 27.97363281 9.05834961 C25.01405084 8.19161489 22.05052123 7.3396846 19.0859375 6.49023438 C17.20287468 5.94617814 15.3200537 5.40128404 13.4375 4.85546875 C12.55199463 4.60016891 11.66648926 4.34486908 10.75415039 4.08183289 C9.9264917 3.83850723 9.09883301 3.59518158 8.24609375 3.34448242 C7.52091553 3.13272873 6.7957373 2.92097504 6.04858398 2.70280457 C3.91898853 1.97220752 1.98897668 1.05028397 0 0 Z " fill="#CB272E" transform="translate(362,522)"/>
<path d="M0 0 C5.3556967 0.64515309 10.37442254 1.81147422 15.55859375 3.28515625 C16.34774673 3.50570175 17.13689972 3.72624725 17.94996643 3.95347595 C20.44699475 4.65234181 22.9422497 5.35731533 25.4375 6.0625 C27.13986008 6.54011962 28.842333 7.01733723 30.54492188 7.49414062 C34.69793398 8.65811559 38.8493679 9.8275678 43 11 C43 11.33 43 11.66 43 12 C36.50149789 11.48446121 30.33773468 10.53332291 24 9 C24 8.34 24 7.68 24 7 C21.36 7 18.72 7 16 7 C16 6.34 16 5.68 16 5 C14.02 5 12.04 5 10 5 C10 4.34 10 3.68 10 3 C8.906875 3.061875 7.81375 3.12375 6.6875 3.1875 C3 3 3 3 1.0625 1.5 C0.5365625 0.7575 0.5365625 0.7575 0 0 Z " fill="#2F0405" transform="translate(363,340)"/>
<path d="M0 0 C1.08748438 3.26245314 0.95343238 3.94983995 0.01196289 7.10424805 C-0.22836166 7.92487228 -0.46868622 8.74549652 -0.71629333 9.59098816 C-1.11776329 10.9129998 -1.11776329 10.9129998 -1.52734375 12.26171875 C-1.92899498 13.62040825 -1.92899498 13.62040825 -2.33876038 15.00654602 C-3.19692955 17.90266993 -4.06705317 20.79504523 -4.9375 23.6875 C-5.52097239 25.64885367 -6.1036646 27.61043962 -6.68554688 29.57226562 C-8.11465464 34.38425365 -9.55449478 39.1929135 -11 44 C-11.33 44 -11.66 44 -12 44 C-12.04254356 42.00045254 -12.04080783 39.99958364 -12 38 C-11.505 37.505 -11.505 37.505 -11 37 C-10.76924918 35.65252916 -10.58846937 34.29622435 -10.4375 32.9375 C-10.293125 31.638125 -10.14875 30.33875 -10 29 C-9.34 29 -8.68 29 -8 29 C-8.0825 28.21625 -8.165 27.4325 -8.25 26.625 C-7.96566813 22.50218787 -6.76556005 19.64354226 -5.15625 15.87890625 C-3.07866087 10.70599007 -1.57454502 5.34340279 0 0 Z " fill="#350304" transform="translate(229,368)"/>
<path d="M0 0 C0 0.33 0 0.66 0 1 C-11.22 1 -22.44 1 -34 1 C-33.67 0.34 -33.34 -0.32 -33 -1 C-28.62575083 -1.22673326 -24.25068728 -1.42813881 -19.875 -1.625 C-18.6375 -1.68945312 -17.4 -1.75390625 -16.125 -1.8203125 C-14.92617187 -1.871875 -13.72734375 -1.9234375 -12.4921875 -1.9765625 C-11.39245605 -2.02893066 -10.29272461 -2.08129883 -9.15966797 -2.13525391 C-5.77229489 -1.99025277 -3.15004841 -1.21602659 0 0 Z " fill="#030304" transform="translate(152,365)"/>
<path d="M0 0 C1.79341438 4.16673521 0.01173384 7.74663341 -1.4375 11.75 C-1.68048828 12.44738281 -1.92347656 13.14476562 -2.17382812 13.86328125 C-2.77310248 15.57885098 -3.38529885 17.28989715 -4 19 C-11.11120489 17.68882339 -18.04699943 15.98279484 -25 14 C-25 13.67 -25 13.34 -25 13 C-22.36 12.67 -19.72 12.34 -17 12 C-17 12.66 -17 13.32 -17 14 C-14.69 14.33 -12.38 14.66 -10 15 C-10 15.66 -10 16.32 -10 17 C-8.35 17 -6.7 17 -5 17 C-4.80664062 16.27554687 -4.61328125 15.55109375 -4.4140625 14.8046875 C-3.07139714 9.81954385 -1.71250514 4.87405309 0 0 Z " fill="#3A0303" transform="translate(406,400)"/>
<path d="M0 0 C1.29065057 3.8719517 0.22324098 6.44232601 -0.9375 10.1875 C-1.13279297 10.84169922 -1.32808594 11.49589844 -1.52929688 12.16992188 C-2.01182563 13.78227407 -2.50490205 15.39146289 -3 17 C-1.92621094 17.26554687 -0.85242188 17.53109375 0.25390625 17.8046875 C1.6901201 18.16139421 3.12631712 18.51816866 4.5625 18.875 C5.26697266 19.04902344 5.97144531 19.22304688 6.69726562 19.40234375 C11.16024998 20.51294815 15.58487052 21.71201216 20 23 C17.02108351 23.92787962 15.08370521 24.01941783 12.06640625 23.2578125 C10.9690918 22.98904297 10.9690918 22.98904297 9.84960938 22.71484375 C9.09486328 22.52019531 8.34011719 22.32554687 7.5625 22.125 C6.06395914 21.75197266 4.56526485 21.37956107 3.06640625 21.0078125 C2.36531738 20.8315332 1.66422852 20.65525391 0.94189453 20.47363281 C-1.35955586 19.91230345 -3.67154521 19.43513867 -6 19 C-4.70024676 12.28460827 -2.70071112 6.27980887 0 0 Z " fill="#D32630" transform="translate(343,385)"/>
<path d="M0 0 C3.34048043 0.87677429 6.64374739 1.83309346 9.94848633 2.8359375 C11.09124023 3.16980469 12.23399414 3.50367188 13.41137695 3.84765625 C16.1987313 4.66403618 18.98139522 5.49357898 21.76098633 6.3359375 C21.76098633 6.6659375 21.76098633 6.9959375 21.76098633 7.3359375 C19.94805544 7.19556229 18.13564203 7.04848861 16.32348633 6.8984375 C14.80948242 6.77662109 14.80948242 6.77662109 13.26489258 6.65234375 C10.76098633 6.3359375 10.76098633 6.3359375 9.76098633 5.3359375 C8.41351549 5.10518668 7.05721068 4.92440687 5.69848633 4.7734375 C4.39911133 4.6290625 3.09973633 4.4846875 1.76098633 4.3359375 C1.76098633 3.6759375 1.76098633 3.0159375 1.76098633 2.3359375 C-1.80208028 1.60505204 -5.29679691 1.20455569 -8.92651367 1.0859375 C-9.67288086 1.06015625 -10.41924805 1.034375 -11.18823242 1.0078125 C-13.75390155 1.41831956 -14.61017713 2.37099183 -16.23901367 4.3359375 C-17.22901367 4.0059375 -18.21901367 3.6759375 -19.23901367 3.3359375 C-13.99726376 -2.4480624 -7.1120687 -1.45811614 0 0 Z " fill="#CD2630" transform="translate(298.239013671875,206.6640625)"/>
<path d="M0 0 C0.63158399 2.31091195 0.99790991 4.08360349 0.9375 6.5 C1.00544488 9.21779525 1.62900698 10.68644927 3 13 C2.23300781 13.17273438 1.46601563 13.34546875 0.67578125 13.5234375 C-2.58295714 15.32169022 -3.13025306 17.03087231 -4.21679688 20.5078125 C-4.41337891 21.20648438 -4.60996094 21.90515625 -4.8125 22.625 C-5.02841797 23.33140625 -5.24433594 24.0378125 -5.46679688 24.765625 C-5.99569015 26.5050962 -6.50024861 28.25193344 -7 30 C-8.26856145 26.19431564 -7.5105389 24.61145825 -6.34765625 20.80078125 C-5.98349609 19.59228516 -5.61933594 18.38378906 -5.24414062 17.13867188 C-4.85044732 15.86322354 -4.45656467 14.58783364 -4.0625 13.3125 C-3.6717309 12.02563181 -3.28174738 10.73852479 -2.89257812 9.45117188 C-1.93610172 6.29834223 -0.97161684 3.14819032 0 0 Z " fill="#D2252D" transform="translate(213,427)"/>
<path d="M0 0 C0.99 0.66 1.98 1.32 3 2 C2.67 2.33 2.34 2.66 2 3 C2.5775 3.0825 3.155 3.165 3.75 3.25 C6.6159304 4.20531013 7.9990764 5.78469173 10 8 C4.47324097 7.36145015 -0.62367351 6.06306646 -5.9375 4.4375 C-6.71673828 4.20353516 -7.49597656 3.96957031 -8.29882812 3.72851562 C-10.20057187 3.15682579 -12.10048226 2.57904309 -14 2 C-10.98537182 1.19366533 -8.43869383 0.9173238 -5.3125 1 C-3.87549262 1.03763031 -2.43674355 1.04662859 -1 1 C-0.67 0.67 -0.34 0.34 0 0 Z " fill="#D12529" transform="translate(238,481)"/>
<path d="M0 0 C2.12438339 -0.08078641 4.2496323 -0.13909141 6.375 -0.1875 C7.55835938 -0.22230469 8.74171875 -0.25710937 9.9609375 -0.29296875 C11.46527344 -0.14794922 11.46527344 -0.14794922 13 0 C13.66 0.99 14.32 1.98 15 3 C18.56769552 3.73606499 18.56769552 3.73606499 22 4 C22 4.66 22 5.32 22 6 C24.97 6.495 24.97 6.495 28 7 C24.35420395 8.30477141 22.01329738 7.67424442 18.359375 6.56640625 C17.28945313 6.24736328 16.21953125 5.92832031 15.1171875 5.59960938 C13.45042969 5.08624023 13.45042969 5.08624023 11.75 4.5625 C10.62335938 4.22412109 9.49671875 3.88574219 8.3359375 3.53710938 C5.5544639 2.70031011 2.77613344 1.85431674 0 1 C0 0.67 0 0.34 0 0 Z " fill="#310708" transform="translate(426,243)"/>
<path d="M0 0 C2.27057377 -0.05398987 4.54151288 -0.09278742 6.8125 -0.125 C8.07707031 -0.14820313 9.34164063 -0.17140625 10.64453125 -0.1953125 C14 0 14 0 17 2 C16.01 2.495 16.01 2.495 15 3 C16.15628906 3.29003906 16.15628906 3.29003906 17.3359375 3.5859375 C18.84027344 3.97652344 18.84027344 3.97652344 20.375 4.375 C21.37273437 4.63023437 22.37046875 4.88546875 23.3984375 5.1484375 C26 6 26 6 28 8 C21.80535692 7.3212527 16.03060448 5.6957044 10.0625 3.9375 C9.09248047 3.65583984 8.12246094 3.37417969 7.12304688 3.08398438 C4.74743409 2.39353534 2.37317295 1.69877999 0 1 C0 0.67 0 0.34 0 0 Z " fill="#31080A" transform="translate(394,234)"/>
<path d="M0 0 C1.05743478 3.81993741 1.09926423 7.27946307 1.0625 11.25 C1.05347656 12.51328125 1.04445312 13.7765625 1.03515625 15.078125 C1.02355469 16.04234375 1.01195312 17.0065625 1 18 C0.34 18.33 -0.32 18.66 -1 19 C-1.33 17.68 -1.66 16.36 -2 15 C-3.32 19.29 -4.64 23.58 -6 28 C-7.06893916 23.72424337 -6.80384576 22.44075443 -5.56640625 18.359375 C-5.0878418 16.75449219 -5.0878418 16.75449219 -4.59960938 15.1171875 C-4.25736328 14.00601562 -3.91511719 12.89484375 -3.5625 11.75 C-3.22412109 10.62335938 -2.88574219 9.49671875 -2.53710938 8.3359375 C-1.70031011 5.5544639 -0.85431674 2.77613344 0 0 Z " fill="#D4242A" transform="translate(245,316)"/>
<path d="M0 0 C1.17748375 4.00583888 0.64818285 6.7803429 -0.25 10.875 C-0.50265625 12.06867188 -0.7553125 13.26234375 -1.015625 14.4921875 C-2 18 -2 18 -3.59765625 21.171875 C-4.96823341 23.9359359 -5.34360608 25.35694917 -5.1875 28.375 C-5.125625 29.57125 -5.06375 30.7675 -5 32 C-5.99 31.67 -6.98 31.34 -8 31 C-7.40316369 24.00608717 -5.54772419 17.67750149 -3.4375 11 C-3.10814453 9.93910156 -2.77878906 8.87820312 -2.43945312 7.78515625 C-1.63228221 5.18817156 -0.81901131 2.59326993 0 0 Z " fill="#CB252D" transform="translate(273,220)"/>
<path d="M0 0 C1.65 0.33 3.3 0.66 5 1 C4.38125 1.185625 3.7625 1.37125 3.125 1.5625 C0.5370343 3.31318268 0.08374809 4.86459872 -0.62890625 7.84765625 C-1.32321541 11.87464936 -1.68863705 15.92770037 -2 20 C-2.99 20.33 -3.98 20.66 -5 21 C-5.33 22.65 -5.66 24.3 -6 26 C-7.12480322 22.65430873 -6.86109454 20.64953176 -5.8203125 17.3046875 C-5.55089844 16.42425781 -5.28148437 15.54382813 -5.00390625 14.63671875 C-4.71386719 13.72535156 -4.42382812 12.81398438 -4.125 11.875 C-3.84269531 10.95589844 -3.56039063 10.03679687 -3.26953125 9.08984375 C-1.19148166 2.38296332 -1.19148166 2.38296332 0 0 Z " fill="#320504" transform="translate(358,338)"/>
<path d="M0 0 C0.99 0.33 1.98 0.66 3 1 C3.33 1.99 3.66 2.98 4 4 C5.65 4.33 7.3 4.66 9 5 C8.67 6.32 8.34 7.64 8 9 C9.32 9.33 10.64 9.66 12 10 C12 10.66 12 11.32 12 12 C12.99 12.33 13.98 12.66 15 13 C14.67 13.66 14.34 14.32 14 15 C9.05 11.37 4.1 7.74 -1 4 C-0.67 2.68 -0.34 1.36 0 0 Z " fill="#101010" transform="translate(215,592)"/>
<path d="M0 0 C3.87467873 1.25665256 6.10609704 2.31187319 8 6 C8.44341156 10.78884481 7.99938435 14.62039619 6 19 C3.375 21.875 3.375 21.875 1 24 C1 21 1 21 3 18.25 C5.39021362 14.36590287 5.64095313 12.48667194 5 8 C3.16682624 4.70751892 3.16682624 4.70751892 1 2 C0.67 1.34 0.34 0.68 0 0 Z " fill="#050506" transform="translate(726,367)"/>
<path d="M0 0 C0.83865439 3.11028516 1.08276532 5.77215268 1 9 C1 9.99 1 10.98 1 12 C0.05973575 14.09040891 -0.94872617 16.15065696 -2 18.1875 C-2.556875 19.27417969 -3.11375 20.36085938 -3.6875 21.48046875 C-4.120625 22.31191406 -4.55375 23.14335937 -5 24 C-6.14184472 20.6252898 -5.84408845 18.60566936 -4.78515625 15.234375 C-4.37426758 13.90019531 -4.37426758 13.90019531 -3.95507812 12.5390625 C-3.66052734 11.61867188 -3.36597656 10.69828125 -3.0625 9.75 C-2.77181641 8.81414062 -2.48113281 7.87828125 -2.18164062 6.9140625 C-1.46343503 4.6063855 -0.73596262 2.30206318 0 0 Z " fill="#D4242E" transform="translate(237,344)"/>
<path d="M0 0 C9.51389771 1.68794959 18.71881118 4.3511204 28 7 C28 7.33 28 7.66 28 8 C18.36522258 7.19710188 9.247636 4.73225609 0 2 C0 1.34 0 0.68 0 0 Z " fill="#340405" transform="translate(377,527)"/>
<path d="M0 0 C6.19464308 0.6787473 11.96939552 2.3042956 17.9375 4.0625 C18.90751953 4.34416016 19.87753906 4.62582031 20.87695312 4.91601562 C23.25256591 5.60646466 25.62682705 6.30122001 28 7 C28 7.33 28 7.66 28 8 C23.19039451 8.36996965 19.67681347 7.32521375 15.234375 5.72265625 C12.79772898 4.86173096 12.79772898 4.86173096 9.3125 4.5 C5.70994049 3.95621743 3.16036416 2.77288721 0 1 C0 0.67 0 0.34 0 0 Z " fill="#350303" transform="translate(320,511)"/>
<path d="M0 0 C0.66 0.66 1.32 1.32 2 2 C0.65531683 5.23155681 -0.46428885 6.61202129 -3.58984375 8.17578125 C-4.29173828 8.52833984 -4.99363281 8.88089844 -5.71679688 9.24414062 C-6.44962891 9.59669922 -7.18246094 9.94925781 -7.9375 10.3125 C-8.66646484 10.68439453 -9.39542969 11.05628906 -10.14648438 11.43945312 C-15.61164184 14.12945272 -15.61164184 14.12945272 -19 13 C-17.96359375 12.48050781 -16.9271875 11.96101562 -15.859375 11.42578125 C-14.48927146 10.72196094 -13.11949698 10.01749983 -11.75 9.3125 C-11.06808594 8.97283203 -10.38617188 8.63316406 -9.68359375 8.28320312 C-5.45826136 6.08849164 -2.73871968 4.03043541 0 0 Z " fill="#040404" transform="translate(514,618)"/>
<path d="M0 0 C6.25107435 0.42954941 12.04204521 1.01401507 18 3 C17.566875 3.804375 17.566875 3.804375 17.125 4.625 C15.83288192 7.35280484 14.91441408 10.12612718 14 13 C12.84058962 9.52176885 13.29179116 7.54104422 14 4 C13.24074219 3.87882812 12.48148437 3.75765625 11.69921875 3.6328125 C10.70535156 3.46523438 9.71148437 3.29765625 8.6875 3.125 C7.20830078 2.88136719 7.20830078 2.88136719 5.69921875 2.6328125 C3 2 3 2 0 0 Z " fill="#D4222B" transform="translate(406,351)"/>
<path d="M0 0 C1.98 0 3.96 0 6 0 C5.9375 2.1875 5.9375 2.1875 5 5 C2.8282781 6.93157957 0.47398953 8.48201687 -2 10 C-1.54177532 6.53058454 -1.10868317 3.32604951 0 0 Z " fill="#F21720" transform="translate(264,251)"/>
<path d="M0 0 C-0.66 1.65 -1.32 3.3 -2 5 C-4.31 5.33 -6.62 5.66 -9 6 C-9 5.34 -9 4.68 -9 4 C-9.66 3.67 -10.32 3.34 -11 3 C-9.73581754 2.30034557 -8.46334598 1.61565237 -7.1875 0.9375 C-6.47980469 0.55464844 -5.77210938 0.17179688 -5.04296875 -0.22265625 C-3 -1 -3 -1 0 0 Z " fill="#18181A" transform="translate(271,136)"/>
<path d="M0 0 C4.61775709 1.3728467 5.59927508 2.96859401 8 7 C9.68982521 8.97190627 11.42131207 10.90868704 13.1875 12.8125 C13.65091797 13.31458984 14.11433594 13.81667969 14.59179688 14.33398438 C15.72400297 15.55956829 16.86146479 16.78029342 18 18 C17.67 18.66 17.34 19.32 17 20 C10.83052168 14.05396355 4.87244071 8.08278633 0 1 C0 0.67 0 0.34 0 0 Z " fill="#090909" transform="translate(172,552)"/>
<path d="M0 0 C5.75762166 1.08896667 11.39247819 2.29336293 17 4 C17 4.66 17 5.32 17 6 C14 7 11 8 8 9 C7.67 8.01 7.34 7.02 7 6 C7.66 5.34 8.32 4.68 9 4 C6.03 3.01 3.06 2.02 0 1 C0 0.67 0 0.34 0 0 Z " fill="#2B080B" transform="translate(231,485)"/>
<path d="M0 0 C4.86896303 0.59619955 9.32790951 1.56976822 14 3 C14 3.33 14 3.66 14 4 C10.7 3.67 7.4 3.34 4 3 C3.67 3.66 3.34 4.32 3 5 C1.35 5 -0.3 5 -2 5 C-2.33 4.01 -2.66 3.02 -3 2 C-2.01 2 -1.02 2 0 2 C0 1.34 0 0.68 0 0 Z " fill="#26090C" transform="translate(444,546)"/>
<path d="M0 0 C-0.59619955 4.86896303 -1.56976822 9.32790951 -3 14 C-3.33 14 -3.66 14 -4 14 C-4.33 10.04 -4.66 6.08 -5 2 C-2 0 -2 0 0 0 Z " fill="#27090D" transform="translate(271,226)"/>
<path d="M0 0 C5.59753384 4.54799625 10.3143947 9.52331848 15 15 C12 15 12 15 10.39453125 13.7578125 C9.87246094 13.21898437 9.35039063 12.68015625 8.8125 12.125 C8.28269531 11.59132812 7.75289062 11.05765625 7.20703125 10.5078125 C6 9 6 9 6 7 C5.38125 6.773125 4.7625 6.54625 4.125 6.3125 C1.38589791 4.62070165 0.94975528 3.00755839 0 0 Z " fill="#0A0A0A" transform="translate(577,189)"/>
<path d="M0 0 C1.00693162 3.12179408 0.97289724 4.98969669 0.00390625 8.109375 C-0.22490234 8.86347656 -0.45371094 9.61757813 -0.68945312 10.39453125 C-0.93630859 11.17183594 -1.18316406 11.94914062 -1.4375 12.75 C-1.68048828 13.54277344 -1.92347656 14.33554687 -2.17382812 15.15234375 C-2.77354195 17.10435346 -3.38558121 19.05256883 -4 21 C-4.33 21 -4.66 21 -5 21 C-4.43157941 16.73684554 -3.77779546 12.49108252 -3.0625 8.25 C-2.90910156 7.32703125 -2.75570312 6.4040625 -2.59765625 5.453125 C-2 3 -2 3 0 0 Z " fill="#340505" transform="translate(252,288)"/>
<path d="M0 0 C2 2 2 2 2.265625 4.35546875 C2.23466804 9.96641689 1.88360072 14.70237298 0 20 C-0.33 20 -0.66 20 -1 20 C-1.02722517 17.79173622 -1.04649729 15.58337362 -1.0625 13.375 C-1.07410156 12.14523437 -1.08570313 10.91546875 -1.09765625 9.6484375 C-1.00863924 6.32276209 -0.63686087 3.25952412 0 0 Z " fill="#D1262E" transform="translate(549,284)"/>
<path d="M0 0 C0.66 0.99 1.32 1.98 2 3 C2.66 3 3.32 3 4 3 C3.45244723 6.83286936 1.7666959 8.40098264 -1 11 C-1.66 11.99 -2.32 12.98 -3 14 C-2.40380045 9.13103697 -1.43023178 4.67209049 0 0 Z " fill="#290707" transform="translate(498,476)"/>
<path d="M0 0 C0.66 0 1.32 0 2 0 C1.42351925 7.35012956 -0.71046164 14.01424576 -3 21 C-3.33 21 -3.66 21 -4 21 C-4.34054122 15.4378268 -3.24951223 12.03890739 -1 7 C-0.5945897 4.67810464 -0.23927006 2.34484656 0 0 Z " fill="#330406" transform="translate(215,412)"/>
<path d="M0 0 C1.46573934 0.90477737 2.92235756 1.82434141 4.375 2.75 C5.18710938 3.26046875 5.99921875 3.7709375 6.8359375 4.296875 C9.08555679 6.0673335 9.95906848 7.36907419 11 10 C10.34 10 9.68 10 9 10 C9 9.34 9 8.68 9 8 C6.7096065 6.72755917 4.99234052 5.99890579 2.375 5.625 C0 5 0 5 -1.3125 2.9375 C-1.539375 2.298125 -1.76625 1.65875 -2 1 C-1.34 0.67 -0.68 0.34 0 0 Z M-2 5 C0 6 0 6 0 6 Z " fill="#0B0B0D" transform="translate(197,616)"/>
<path d="M0 0 C0.33 0 0.66 0 1 0 C1.22245393 1.60226955 1.42746669 3.20696767 1.625 4.8125 C1.74101563 5.70582031 1.85703125 6.59914063 1.9765625 7.51953125 C2 10 2 10 0 13 C-0.33 12.67 -0.66 12.34 -1 12 C-1.66 12.66 -2.32 13.32 -3 14 C-2.40380045 9.13103697 -1.43023178 4.67209049 0 0 Z " fill="#2D070C" transform="translate(548,304)"/>
<path d="M0 0 C3.21524305 1.40844718 5.32183868 3.10344786 7.75 5.625 C8.67039062 6.57246094 8.67039062 6.57246094 9.609375 7.5390625 C10.29773438 8.26222656 10.29773438 8.26222656 11 9 C10.67 9.99 10.34 10.98 10 12 C8.32737283 10.38113585 6.66204463 8.7547271 5 7.125 C4.071875 6.22007812 3.14375 5.31515625 2.1875 4.3828125 C0 2 0 2 0 0 Z " fill="#2C2C2D" transform="translate(590,162)"/>
<path d="M0 0 C1.56393356 3.97376829 0.36145292 6.81377903 -0.9375 10.75 C-1.31777344 11.92046875 -1.69804688 13.0909375 -2.08984375 14.296875 C-2.39019531 15.18890625 -2.69054687 16.0809375 -3 17 C-3.33 17 -3.66 17 -4 17 C-4 14.36 -4 11.72 -4 9 C-3.34 9 -2.68 9 -2 9 C-2 6.69 -2 4.38 -2 2 C-1.34 2 -0.68 2 0 2 C0 1.34 0 0.68 0 0 Z " fill="#D6252F" transform="translate(539,331)"/>
<path d="M0 0 C0.66 0.33 1.32 0.66 2 1 C0.88233946 4.35298161 -0.54724099 5.54724099 -3 8 C-3 8.66 -3 9.32 -3 10 C-4.98 10.99 -6.96 11.98 -9 13 C-7.50923566 9.7173068 -5.61379679 7.06922559 -3.375 4.25 C-2.74335937 3.45078125 -2.11171875 2.6515625 -1.4609375 1.828125 C-0.97882812 1.22484375 -0.49671875 0.6215625 0 0 Z " fill="#080808" transform="translate(624,563)"/>
<path d="M0 0 C6.19240462 0.68804496 12.01955594 2.28048715 18 4 C18 4.33 18 4.66 18 5 C15.36 5 12.72 5 10 5 C10 4.34 10 3.68 10 3 C8.02 3.33 6.04 3.66 4 4 C3.67 3.01 3.34 2.02 3 1 C2.01 0.67 1.02 0.34 0 0 Z " fill="#D1242D" transform="translate(390,234)"/>
<path d="M0 0 C3.89917968 1.61537444 6.71293772 4.27924873 9.75 7.125 C10.25660156 7.59292969 10.76320313 8.06085938 11.28515625 8.54296875 C12.52719141 9.69126541 13.76411494 10.84508672 15 12 C12 12 12 12 9 10 C9 9.34 9 8.68 9 8 C8.443125 7.79375 7.88625 7.5875 7.3125 7.375 C4.07498698 5.44999226 2.31768859 2.96149098 0 0 Z " fill="#0B0B0C" transform="translate(559,173)"/>
<path d="M0 0 C1.32 0.66 2.64 1.32 4 2 C3.401875 2.804375 2.80375 3.60875 2.1875 4.4375 C-0.42741231 8.31799265 -1.69222749 12.54168462 -3 17 C-4.56393356 13.02623171 -3.36145292 10.18622097 -2.0625 6.25 C-1.68222656 5.07953125 -1.30195313 3.9090625 -0.91015625 2.703125 C-0.60980469 1.81109375 -0.30945313 0.9190625 0 0 Z " fill="#2F0507" transform="translate(275,209)"/>
<path d="M0 0 C-1.55851755 0.82011312 -3.12201716 1.63076213 -4.6875 2.4375 C-5.55761719 2.88996094 -6.42773438 3.34242188 -7.32421875 3.80859375 C-9.90998264 4.95991928 -12.21356528 5.56320753 -15 6 C-15 5.34 -15 4.68 -15 4 C-13.29463574 3.26435267 -11.58867329 2.53004321 -9.87890625 1.8046875 C-8.32708898 1.14008384 -6.78683097 0.44855953 -5.25 -0.25 C-3 -1 -3 -1 0 0 Z " fill="#050505" transform="translate(494,633)"/>
<path d="M0 0 C1.25127906 3.54667178 0.72285053 5.72253438 -0.4375 9.25 C-0.72496094 10.14203125 -1.01242187 11.0340625 -1.30859375 11.953125 C-1.53675781 12.62859375 -1.76492188 13.3040625 -2 14 C-4 12 -4 12 -4.125 9.375 C-4.08375 8.59125 -4.0425 7.8075 -4 7 C-3.01 6.67 -2.02 6.34 -1 6 C-0.67 4.02 -0.34 2.04 0 0 Z " fill="#D9252E" transform="translate(516,410)"/>
<path d="M0 0 C0.33 0 0.66 0 1 0 C2.44608879 6.98942918 2.44608879 6.98942918 1.17578125 9.8671875 C0.0625 11.5 0.0625 11.5 -2 14 C-3.25127906 10.45332822 -2.72285053 8.27746562 -1.5625 4.75 C-1.27503906 3.85796875 -0.98757813 2.9659375 -0.69140625 2.046875 C-0.46324219 1.37140625 -0.23507812 0.6959375 0 0 Z " fill="#2E0707" transform="translate(532,359)"/>
<path d="M0 0 C4.94151304 2.40016348 7.04331244 5.52273027 10 10 C9.67 10.66 9.34 11.32 9 12 C2.58361775 7.08532423 2.58361775 7.08532423 2 3 C1.34 2.67 0.68 2.34 0 2 C0 1.34 0 0.68 0 0 Z " fill="#0C0C0D" transform="translate(136,552)"/>
<path d="M0 0 C0.99 0 1.98 0 3 0 C1.77946141 3.66161578 0.63217696 4.16270474 -2.5625 6.1875 C-3.38878906 6.71730469 -4.21507812 7.24710938 -5.06640625 7.79296875 C-5.70449219 8.19128906 -6.34257813 8.58960938 -7 9 C-7.66 8.67 -8.32 8.34 -9 8 C-8.43410156 7.59007812 -7.86820313 7.18015625 -7.28515625 6.7578125 C-6.18494141 5.94957031 -6.18494141 5.94957031 -5.0625 5.125 C-4.33160156 4.59132813 -3.60070312 4.05765625 -2.84765625 3.5078125 C-0.88901765 2.11987896 -0.88901765 2.11987896 0 0 Z " fill="#09090A" transform="translate(542,602)"/>
<path d="M0 0 C0 0.99 0 1.98 0 3 C-1.45537568 3.83848804 -2.91440373 4.67063934 -4.375 5.5 C-5.59316406 6.19609375 -5.59316406 6.19609375 -6.8359375 6.90625 C-9 8 -9 8 -11 8 C-11 7.34 -11 6.68 -11 6 C-7.37 4.02 -3.74 2.04 0 0 Z " fill="#08080A" transform="translate(537,641)"/>
<path d="M0 0 C4.96916636 0.51405169 9.29026351 1.23384882 14 3 C14 3.33 14 3.66 14 4 C8.80790596 4.21192221 4.873261 3.5912689 0 2 C0 1.34 0 0.68 0 0 Z " fill="#310408" transform="translate(348,519)"/>
<path d="M0 0 C0 0.66 0 1.32 0 2 C2.31 2.33 4.62 2.66 7 3 C7 3.33 7 3.66 7 4 C1.47322267 4.19392201 -2.75614911 3.7479503 -8 2 C-8 1.67 -8 1.34 -8 1 C-2.25 0 -2.25 0 0 0 Z " fill="#290707" transform="translate(389,412)"/>
<path d="M0 0 C4.83256305 0.41421969 6.82679218 2.46413986 10 6 C7.03 5.67 4.06 5.34 1 5 C1.33 3.68 1.66 2.36 2 1 C1.34 0.67 0.68 0.34 0 0 Z " fill="#DD242D" transform="translate(537,275)"/>
<path d="M0 0 C1 2 1 2 1 6 C0.01 6.66 -0.98 7.32 -2 8 C-2.33 8.99 -2.66 9.98 -3 11 C-3.66 11 -4.32 11 -5 11 C-4.54917531 9.53932801 -4.08906463 8.08151968 -3.625 6.625 C-3.36976563 5.81289063 -3.11453125 5.00078125 -2.8515625 4.1640625 C-2 2 -2 2 0 0 Z " fill="#080808" transform="translate(663,495)"/>
<path d="M0 0 C0.99 0.66 1.98 1.32 3 2 C-2.90269182 4.8715798 -7.89108077 3.4130952 -14 2 C-11.01049637 1.12435592 -8.42036138 0.91780862 -5.3125 1 C-3.87549262 1.03763031 -2.43674355 1.04662859 -1 1 C-0.67 0.67 -0.34 0.34 0 0 Z " fill="#E01F28" transform="translate(238,481)"/>
<path d="M0 0 C0.33 0 0.66 0 1 0 C2.125 6.75 2.125 6.75 1 9 C0.34 9 -0.32 9 -1 9 C-1 9.99 -1 10.98 -1 12 C-1.66 12 -2.32 12 -3 12 C-2.01 8.04 -1.02 4.08 0 0 Z " fill="#D3242E" transform="translate(406,404)"/>
<path d="M0 0 C0.33 0 0.66 0 1 0 C1.39063507 1.43333021 1.76198474 2.87192679 2.125 4.3125 C2.33382812 5.11300781 2.54265625 5.91351563 2.7578125 6.73828125 C3 9 3 9 1 12 C-1.23551759 8.64672361 -1.17283528 8.09256343 -0.625 4.3125 C-0.51414062 3.50425781 -0.40328125 2.69601562 -0.2890625 1.86328125 C-0.19367187 1.24839844 -0.09828125 0.63351562 0 0 Z " fill="#202020" transform="translate(609,377)"/>
<path d="M0 0 C0.66 0.66 1.32 1.32 2 2 C2.99 1.67 3.98 1.34 5 1 C4.34 3.64 3.68 6.28 3 9 C0.86928411 6.40608501 -0.53582673 4.36525621 -1 1 C-0.67 0.67 -0.34 0.34 0 0 Z " fill="#E11F27" transform="translate(353,337)"/>
<path d="M0 0 C0.66 0.33 1.32 0.66 2 1 C1.67 1.66 1.34 2.32 1 3 C0.01 3.33 -0.98 3.66 -2 4 C-3.20882096 6.00016466 -3.20882096 6.00016466 -4 8 C-4.99 8 -5.98 8 -7 8 C-6.21366078 6.85050412 -5.42073742 5.70551011 -4.625 4.5625 C-4.18414062 3.92441406 -3.74328125 3.28632813 -3.2890625 2.62890625 C-2 1 -2 1 0 0 Z " fill="#0B0B0C" transform="translate(170,216)"/>
<path d="M0 0 C1.14926266 0.95421808 2.29430541 1.91352045 3.4375 2.875 C4.07558594 3.40867187 4.71367187 3.94234375 5.37109375 4.4921875 C7 6 7 6 8 8 C7.4225 7.690625 6.845 7.38125 6.25 7.0625 C4.15705816 6.07416636 2.25464725 5.4831387 0 5 C0 4.34 0 3.68 0 3 C-0.99 2.67 -1.98 2.34 -3 2 C-2.01 1.34 -1.02 0.68 0 0 Z " fill="#1F0908" transform="translate(203,470)"/>
<path d="M0 0 C1.4606285 2.64738916 2 3.89448334 2 7 C1.01 7 0.02 7 -1 7 C-1.33 8.98 -1.66 10.96 -2 13 C-3.18771723 9.57056481 -2.80226223 7.62215325 -1.5625 4.25 C-1.27503906 3.45078125 -0.98757813 2.6515625 -0.69140625 1.828125 C-0.46324219 1.22484375 -0.23507812 0.6215625 0 0 Z " fill="#CB262C" transform="translate(418,364)"/>
<path d="M0 0 C5.13503344 0.64187918 9.9943454 1.68272247 15 3 C15 3.33 15 3.66 15 4 C13.06166004 3.91284983 11.1242571 3.80467036 9.1875 3.6875 C8.10855469 3.62949219 7.02960938 3.57148438 5.91796875 3.51171875 C2.82502483 2.96931493 1.86977097 2.44710376 0 0 Z " fill="#380406" transform="translate(363,340)"/>
<path d="M0 0 C0.99 0.66 1.98 1.32 3 2 C1.6875 4.5 1.6875 4.5 0 7 C-0.99 7 -1.98 7 -3 7 C-3.33 5.68 -3.66 4.36 -4 3 C-3.01 3 -2.02 3 -1 3 C-0.67 2.01 -0.34 1.02 0 0 Z " fill="#18181A" transform="translate(126,226)"/>
<path d="M0 0 C0.33 0.66 0.66 1.32 1 2 C2.32 1.34 3.64 0.68 5 0 C4.67 0.99 4.34 1.98 4 3 C1.4375 4.1875 1.4375 4.1875 -1 5 C-1 4.34 -1 3.68 -1 3 C-1.99 2.67 -2.98 2.34 -4 2 C-2.68 1.34 -1.36 0.68 0 0 Z " fill="#09090A" transform="translate(525,612)"/>
<path d="M0 0 C2.66666667 1.33333333 5.33333333 2.66666667 8 4 C8 4.66 8 5.32 8 6 C8.99 6.33 9.98 6.66 11 7 C10.67 7.66 10.34 8.32 10 9 C8.33043913 7.69118353 6.66441696 6.37785174 5 5.0625 C4.071875 4.33160156 3.14375 3.60070312 2.1875 2.84765625 C1.465625 2.23792969 0.74375 1.62820313 0 1 C0 0.67 0 0.34 0 0 Z " fill="#060607" transform="translate(219,598)"/>
<path d="M0 0 C1.31611677 0.95336021 2.62778961 1.91285774 3.9375 2.875 C4.66839844 3.40867187 5.39929688 3.94234375 6.15234375 4.4921875 C8 6 8 6 9 8 C8.34 8.66 7.68 9.32 7 10 C7 9.01 7 8.02 7 7 C6.401875 6.731875 5.80375 6.46375 5.1875 6.1875 C3.00152146 5.00082594 1.58667406 3.90400887 0 2 C0 1.34 0 0.68 0 0 Z " fill="#1A1A1B" transform="translate(173,595)"/>
<path d="M0 0 C0.66 0.33 1.32 0.66 2 1 C1.34 2.32 0.68 3.64 0 5 C-0.99 4.67 -1.98 4.34 -3 4 C-3 4.66 -3 5.32 -3 6 C-4.32 6.33 -5.64 6.66 -7 7 C-4.78071806 4.09197539 -3.07030857 2.04687238 0 0 Z " fill="#080808" transform="translate(574,615)"/>
<path d="M0 0 C0.66 0.33 1.32 0.66 2 1 C1.34 1.66 0.68 2.32 0 3 C0 2.01 0 1.02 0 0 Z M-2 4 C-1.34 4.33 -0.68 4.66 0 5 C0 5.66 0 6.32 0 7 C-1.65 7.33 -3.3 7.66 -5 8 C-4.01 6.68 -3.02 5.36 -2 4 Z " fill="#181819" transform="translate(207,175)"/>
<path d="M0 0 C0.33 0.99 0.66 1.98 1 3 C-2.37817425 3.84454356 -4.67465243 4.10844919 -8 3 C-5.36657694 0.36657694 -3.69534435 0 0 0 Z " fill="#19191B" transform="translate(306,123)"/>
<path d="M0 0 C0.99 0.66 1.98 1.32 3 2 C1.02 3.32 -0.96 4.64 -3 6 C-3.66 5.67 -4.32 5.34 -5 5 C-2.25 1.125 -2.25 1.125 0 0 Z " fill="#0A0A0B" transform="translate(228,123)"/>
<path d="M0 0 C0.66 0.66 1.32 1.32 2 2 C1.1875 3.9375 1.1875 3.9375 0 6 C-0.99 6.33 -1.98 6.66 -3 7 C-3 3.48283697 -2.17554415 2.62878252 0 0 Z " fill="#0B0B0B" transform="translate(514,618)"/>
<path d="M0 0 C3.48539917 0.64544429 6.02819057 2.10134397 9 4 C8.34 4.66 7.68 5.32 7 6 C5.83054208 5.19152271 4.66449539 4.37810888 3.5 3.5625 C2.8503125 3.11003906 2.200625 2.65757812 1.53125 2.19140625 C1.0259375 1.79824219 0.520625 1.40507813 0 1 C0 0.67 0 0.34 0 0 Z " fill="#09090A" transform="translate(237,611)"/>
<path d="M0 0 C3.91402949 1.26941497 5.79072873 2.51167694 8 6 C7.01 6.66 6.02 7.32 5 8 C1.125 2.25 1.125 2.25 0 0 Z " fill="#0B0B0D" transform="translate(726,367)"/>
<path d="M0 0 C0.33 0 0.66 0 1 0 C1 1.98 1 3.96 1 6 C2.32 5.67 3.64 5.34 5 5 C5 5.99 5 6.98 5 8 C3.35 8 1.7 8 0 8 C0 5.36 0 2.72 0 0 Z " fill="#1E1E1E" transform="translate(113,358)"/>
<path d="M0 0 C2.76223278 2.76223278 2.57856291 5.20706617 3 9 C2.34 9 1.68 9 1 9 C1 8.01 1 7.02 1 6 C0.34 5.67 -0.32 5.34 -1 5 C-0.67 3.35 -0.34 1.7 0 0 Z " fill="#E81D26" transform="translate(538,322)"/>
<path d="M0 0 C0.33 0 0.66 0 1 0 C1.29296875 6.0546875 1.29296875 6.0546875 1 8 C0.01 8.66 -0.98 9.32 -2 10 C-1.54177532 6.53058454 -1.10868317 3.32604951 0 0 Z " fill="#D22430" transform="translate(264,251)"/>
<path d="M0 0 C0.66 0 1.32 0 2 0 C2.99 2.97 3.98 5.94 5 9 C4.34 9 3.68 9 3 9 C2.01 6.03 1.02 3.06 0 0 Z " fill="#070707" transform="translate(132,482)"/>
<path d="M0 0 C0.33 0 0.66 0 1 0 C1.125 7.75 1.125 7.75 0 10 C-0.66 10 -1.32 10 -2 10 C-1.34 6.7 -0.68 3.4 0 0 Z " fill="#D1272B" transform="translate(216,416)"/>
<path d="M0 0 C0.66 0.33 1.32 0.66 2 1 C0.71475739 1.86380259 -0.57842419 2.71580369 -1.875 3.5625 C-2.59429687 4.03816406 -3.31359375 4.51382813 -4.0546875 5.00390625 C-4.69664062 5.33261719 -5.33859375 5.66132813 -6 6 C-6.66 5.67 -7.32 5.34 -8 5 C-5.31158141 2.74754119 -3.35358125 1.11786042 0 0 Z " fill="#0C0C0C" transform="translate(235,155)"/>
<path d="M0 0 C2.51083114 1.25541557 2.87125446 2.50063488 4 5 C2.02 5 0.04 5 -2 5 C-1.34 3.35 -0.68 1.7 0 0 Z " fill="#19191A" transform="translate(331,114)"/>
</svg>
